<svg version="1.1" xmlns="http://www.w3.org/2000/svg" xmlns:xlink="http://www.w3.org/1999/xlink" width="924" height="463"><defs/><g><g transform="translate(-174,-275) scale(1,1)"><rect fill="#C0C0C0" stroke="none" x="431" y="292" width="265.6" height="15" opacity="0.2"/></g><g transform="translate(-174,-275) scale(1,1)"><rect fill="#C0C0C0" stroke="none" x="431" y="306" width="664" height="429" opacity="0.2"/></g><g transform="translate(-174,-275) scale(1,1)"><rect fill="#ffffff" stroke="none" x="424" y="300" width="664" height="428"/></g><g transform="translate(-174,-275) scale(1,1)"><path fill="none" stroke="#000000" d="M 424 300 L 1088 300 L 1088 728 L 424 728 L 424 300 Z Z" stroke-miterlimit="10"/></g><g transform="translate(-174,-275) scale(1,1)"><rect fill="#ffffff" stroke="none" x="424" y="285" width="265.6" height="15"/></g><g transform="translate(-174,-275) scale(1,1)"><path fill="none" stroke="#000000" d="M 424 285 L 689.6 285 L 689.6 300 L 424 300 L 424 285 Z Z" stroke-miterlimit="10"/></g><g transform="translate(-174,-275) scale(1,1)"><rect fill="#ffffff" stroke="none" x="424" y="299" width="664" height="429"/></g><g transform="translate(-174,-275) scale(1,1)"><path fill="none" stroke="#000000" d="M 424 299 L 1088 299 L 1088 728 L 424 728 L 424 299 Z Z" stroke-miterlimit="10"/></g><g transform="translate(-174,-275) scale(1,1)"><g><path fill="none" stroke="none"/><text fill="#000000" stroke="none" font-family="Arial" font-size="13px" font-style="normal" font-weight="bold" text-decoration="none" x="737.569580078125" y="319.5">Pagos</text></g></g><g transform="translate(-174,-275) scale(1,1)"><path fill="#C0C0C0" stroke="none" d="M 703 370.5 C 703 355.312168 729.6390544 343 762.5 343 C 795.3609456 343 822 355.312168 822 370.5 C 822 385.687832 795.3609456 398 762.5 398 C 729.6390544 398 703 385.687832 703 370.5 Z" opacity="0.2"/></g><g transform="translate(-174,-275) scale(1,1)"><path fill="#ffffff" stroke="none" d="M 696 363.5 C 696 348.312168 722.6390544 336 755.5 336 C 788.3609456 336 815 348.312168 815 363.5 C 815 378.687832 788.3609456 391 755.5 391 C 722.6390544 391 696 378.687832 696 363.5 Z"/></g><g transform="translate(-174,-275) scale(1,1)"><path fill="none" stroke="#000000" d="M 696 363.5 C 696 348.312168 722.6390544 336 755.5 336 C 788.3609456 336 815 348.312168 815 363.5 C 815 378.687832 788.3609456 391 755.5 391 C 722.6390544 391 696 378.687832 696 363.5 Z" stroke-miterlimit="10"/></g><g transform="translate(-174,-275) scale(1,1)"><g><path fill="none" stroke="none"/><text fill="#000000" stroke="none" font-family="Arial" font-size="13px" font-style="normal" font-weight="bold" text-decoration="none" x="732.73095703125" y="363">Cheque</text></g></g><g transform="translate(-174,-275) scale(1,1)"><g><path fill="none" stroke="none"/><text fill="#000000" stroke="none" font-family="Arial" font-size="13px" font-style="normal" font-weight="normal" text-decoration="none" x="717.9345703125" y="378">(from Pagos)</text></g></g><g transform="translate(-174,-275) scale(1,1)"><path fill="#C0C0C0" stroke="none" d="M 655 466.5 C 655 451.312168 707.606536 439 772.5 439 C 837.393464 439 890 451.312168 890 466.5 C 890 481.687832 837.393464 494 772.5 494 C 707.606536 494 655 481.687832 655 466.5 Z" opacity="0.2"/></g><g transform="translate(-174,-275) scale(1,1)"><path fill="#ffffff" stroke="none" d="M 648 459.5 C 648 444.312168 700.606536 432 765.5 432 C 830.393464 432 883 444.312168 883 459.5 C 883 474.687832 830.393464 487 765.5 487 C 700.606536 487 648 474.687832 648 459.5 Z"/></g><g transform="translate(-174,-275) scale(1,1)"><path fill="none" stroke="#000000" d="M 648 459.5 C 648 444.312168 700.606536 432 765.5 432 C 830.393464 432 883 444.312168 883 459.5 C 883 474.687832 830.393464 487 765.5 487 C 700.606536 487 648 474.687832 648 459.5 Z" stroke-miterlimit="10"/></g><g transform="translate(-174,-275) scale(1,1)"><g><path fill="none" stroke="none"/><text fill="#000000" stroke="none" font-family="Arial" font-size="13px" font-style="normal" font-weight="bold" text-decoration="none" x="692.15283203125" y="459">DepositoCuentaCorriente</text></g></g><g transform="translate(-174,-275) scale(1,1)"><g><path fill="none" stroke="none"/><text fill="#000000" stroke="none" font-family="Arial" font-size="13px" font-style="normal" font-weight="normal" text-decoration="none" x="727.9345703125" y="474">(from Pagos)</text></g></g><g transform="translate(-174,-275) scale(1,1)"><path fill="#C0C0C0" stroke="none" d="M 687 554.5 C 687 539.312168 713.6390544 527 746.5 527 C 779.3609456 527 806 539.312168 806 554.5 C 806 569.687832 779.3609456 582 746.5 582 C 713.6390544 582 687 569.687832 687 554.5 Z" opacity="0.2"/></g><g transform="translate(-174,-275) scale(1,1)"><path fill="#ffffff" stroke="none" d="M 680 547.5 C 680 532.312168 706.6390544 520 739.5 520 C 772.3609456 520 799 532.312168 799 547.5 C 799 562.687832 772.3609456 575 739.5 575 C 706.6390544 575 680 562.687832 680 547.5 Z"/></g><g transform="translate(-174,-275) scale(1,1)"><path fill="none" stroke="#000000" d="M 680 547.5 C 680 532.312168 706.6390544 520 739.5 520 C 772.3609456 520 799 532.312168 799 547.5 C 799 562.687832 772.3609456 575 739.5 575 C 706.6390544 575 680 562.687832 680 547.5 Z" stroke-miterlimit="10"/></g><g transform="translate(-174,-275) scale(1,1)"><g><path fill="none" stroke="none"/><text fill="#000000" stroke="none" font-family="Arial" font-size="13px" font-style="normal" font-weight="bold" text-decoration="none" x="726.858642578125" y="547">AFP</text></g></g><g transform="translate(-174,-275) scale(1,1)"><g><path fill="none" stroke="none"/><text fill="#000000" stroke="none" font-family="Arial" font-size="13px" font-style="normal" font-weight="normal" text-decoration="none" x="701.9345703125" y="562">(from Pagos)</text></g></g><g transform="translate(-174,-275) scale(1,1)"><path fill="#C0C0C0" stroke="none" d="M 655 650.5 C 655 635.312168 707.606536 623 772.5 623 C 837.393464 623 890 635.312168 890 650.5 C 890 665.687832 837.393464 678 772.5 678 C 707.606536 678 655 665.687832 655 650.5 Z" opacity="0.2"/></g><g transform="translate(-174,-275) scale(1,1)"><path fill="#ffffff" stroke="none" d="M 648 643.5 C 648 628.312168 700.606536 616 765.5 616 C 830.393464 616 883 628.312168 883 643.5 C 883 658.687832 830.393464 671 765.5 671 C 700.606536 671 648 658.687832 648 643.5 Z"/></g><g transform="translate(-174,-275) scale(1,1)"><path fill="none" stroke="#000000" d="M 648 643.5 C 648 628.312168 700.606536 616 765.5 616 C 830.393464 616 883 628.312168 883 643.5 C 883 658.687832 830.393464 671 765.5 671 C 700.606536 671 648 658.687832 648 643.5 Z" stroke-miterlimit="10"/></g><g transform="translate(-174,-275) scale(1,1)"><g><path fill="none" stroke="none"/><text fill="#000000" stroke="none" font-family="Arial" font-size="13px" font-style="normal" font-weight="bold" text-decoration="none" x="692.15283203125" y="643">DepositoCuentaCorriente</text></g></g><g transform="translate(-174,-275) scale(1,1)"><g><path fill="none" stroke="none"/><text fill="#000000" stroke="none" font-family="Arial" font-size="13px" font-style="normal" font-weight="normal" text-decoration="none" x="727.9345703125" y="658">(from Pagos)</text></g></g><g transform="translate(-174,-275) scale(1,1)"><path fill="#ffffff" stroke="none" d="M 240.86931125710228 489.68 C 240.86931125710228 484.886167936 244.7551535820477 481 249.548583984375 481 C 254.3420143867023 481 258.22785671164775 484.886167936 258.22785671164775 489.68 C 258.22785671164775 494.473832064 254.3420143867023 498.36 249.548583984375 498.36 C 244.7551535820477 498.36 240.86931125710228 494.473832064 240.86931125710228 489.68 Z"/></g><g transform="translate(-174,-275) scale(1,1)"><path fill="none" stroke="#000000" d="M 240.86931125710228 489.68 C 240.86931125710228 484.886167936 244.7551535820477 481 249.548583984375 481 C 254.3420143867023 481 258.22785671164775 484.886167936 258.22785671164775 489.68 C 258.22785671164775 494.473832064 254.3420143867023 498.36 249.548583984375 498.36 C 244.7551535820477 498.36 240.86931125710228 494.473832064 240.86931125710228 489.68 Z" stroke-miterlimit="10"/></g><g transform="translate(-174,-275) scale(1,1)"><path fill="none" stroke="#000000" d="M 249.548583984375 498.36 L 249.548583984375 515.64" stroke-miterlimit="10"/></g><g transform="translate(-174,-275) scale(1,1)"><path fill="none" stroke="#000000" d="M 240.35876580255683 504.84 L 258.73840216619317 504.84" stroke-miterlimit="10"/></g><g transform="translate(-174,-275) scale(1,1)"><path fill="none" stroke="#000000" d="M 249.548583984375 515.64 L 236.78494762073865 533" stroke-miterlimit="10"/></g><g transform="translate(-174,-275) scale(1,1)"><path fill="none" stroke="#000000" d="M 249.548583984375 515.64 L 262.31222034801135 533" stroke-miterlimit="10"/></g><g transform="translate(-174,-275) scale(1,1)"><g><path fill="none" stroke="none"/><text fill="#000000" stroke="none" font-family="Arial" font-size="13px" font-style="normal" font-weight="bold" text-decoration="none" x="192.45458984375" y="553.5">PersonalEncargado</text></g></g><g transform="translate(-174,-275) scale(1,1)"><path fill="none" stroke="#000000" d="M 316 498 L 695 381" stroke-miterlimit="10"/></g><g transform="translate(-174,-275) scale(1,1)"><path fill="none" stroke="#000000" d="M 316 511 L 647 473" stroke-miterlimit="10"/></g><g transform="translate(-174,-275) scale(1,1)"><path fill="none" stroke="#000000" d="M 316 535 L 648 615" stroke-miterlimit="10"/></g><g transform="translate(-174,-275) scale(1,1)"><path fill="none" stroke="#000000" d="M 316 523 L 679 544" stroke-miterlimit="10"/></g></g></svg>