<svg version="1.1" xmlns="http://www.w3.org/2000/svg" xmlns:xlink="http://www.w3.org/1999/xlink" width="716.9052734375" height="293"><defs/><g><g transform="translate(-206,-230) scale(1,1)"><rect fill="#C0C0C0" stroke="none" x="223" y="247" width="160" height="15" opacity="0.2"/></g><g transform="translate(-206,-230) scale(1,1)"><rect fill="#C0C0C0" stroke="none" x="223" y="261" width="400" height="154" opacity="0.2"/></g><g transform="translate(-206,-230) scale(1,1)"><rect fill="#ffffff" stroke="none" x="216" y="255" width="400" height="153"/></g><g transform="translate(-206,-230) scale(1,1)"><path fill="none" stroke="#000000" d="M 216 255 L 616 255 L 616 408 L 216 408 L 216 255 Z Z" stroke-miterlimit="10"/></g><g transform="translate(-206,-230) scale(1,1)"><rect fill="#ffffff" stroke="none" x="216" y="240" width="160" height="15"/></g><g transform="translate(-206,-230) scale(1,1)"><path fill="none" stroke="#000000" d="M 216 240 L 376 240 L 376 255 L 216 255 L 216 240 Z Z" stroke-miterlimit="10"/></g><g transform="translate(-206,-230) scale(1,1)"><rect fill="#ffffff" stroke="none" x="216" y="254" width="400" height="154"/></g><g transform="translate(-206,-230) scale(1,1)"><path fill="none" stroke="#000000" d="M 216 254 L 616 254 L 616 408 L 216 408 L 216 254 Z Z" stroke-miterlimit="10"/></g><g transform="translate(-206,-230) scale(1,1)"><g><path fill="none" stroke="none"/><text fill="#000000" stroke="none" font-family="Arial" font-size="13px" font-style="normal" font-weight="bold" text-decoration="none" x="391.79638671875" y="274.5">Registro</text></g></g><g transform="translate(-206,-230) scale(1,1)"><path fill="#C0C0C0" stroke="none" d="M 311 320 C 311 310.6111584 362.7111056 303 426.5 303 C 490.2888944 303 542 310.6111584 542 320 C 542 329.3888416 490.2888944 337 426.5 337 C 362.7111056 337 311 329.3888416 311 320 Z" opacity="0.2"/></g><g transform="translate(-206,-230) scale(1,1)"><path fill="#ffffff" stroke="none" d="M 304 313 C 304 303.6111584 355.7111056 296 419.5 296 C 483.2888944 296 535 303.6111584 535 313 C 535 322.3888416 483.2888944 330 419.5 330 C 355.7111056 330 304 322.3888416 304 313 Z"/></g><g transform="translate(-206,-230) scale(1,1)"><path fill="none" stroke="#000000" d="M 304 313 C 304 303.6111584 355.7111056 296 419.5 296 C 483.2888944 296 535 303.6111584 535 313 C 535 322.3888416 483.2888944 330 419.5 330 C 355.7111056 330 304 322.3888416 304 313 Z" stroke-miterlimit="10"/></g><g transform="translate(-206,-230) scale(1,1)"><g><path fill="none" stroke="none"/><text fill="#000000" stroke="none" font-family="Arial" font-size="13px" font-style="normal" font-weight="bold" text-decoration="none" x="347.23828125" y="320">RegistroEmpleadoNuevo</text></g></g><g transform="translate(-206,-230) scale(1,1)"><path fill="#ffffff" stroke="none" d="M 835.7733639914773 425.68 C 835.7733639914773 420.886167936 839.6592063164227 417 844.45263671875 417 C 849.2460671210773 417 853.1319094460227 420.886167936 853.1319094460227 425.68 C 853.1319094460227 430.473832064 849.2460671210773 434.36 844.45263671875 434.36 C 839.6592063164227 434.36 835.7733639914773 430.473832064 835.7733639914773 425.68 Z"/></g><g transform="translate(-206,-230) scale(1,1)"><path fill="none" stroke="#000000" d="M 835.7733639914773 425.68 C 835.7733639914773 420.886167936 839.6592063164227 417 844.45263671875 417 C 849.2460671210773 417 853.1319094460227 420.886167936 853.1319094460227 425.68 C 853.1319094460227 430.473832064 849.2460671210773 434.36 844.45263671875 434.36 C 839.6592063164227 434.36 835.7733639914773 430.473832064 835.7733639914773 425.68 Z" stroke-miterlimit="10"/></g><g transform="translate(-206,-230) scale(1,1)"><path fill="none" stroke="#000000" d="M 844.45263671875 434.36 L 844.45263671875 451.64" stroke-miterlimit="10"/></g><g transform="translate(-206,-230) scale(1,1)"><path fill="none" stroke="#000000" d="M 835.2628185369318 440.84 L 853.6424549005682 440.84" stroke-miterlimit="10"/></g><g transform="translate(-206,-230) scale(1,1)"><path fill="none" stroke="#000000" d="M 844.45263671875 451.64 L 831.6890003551136 469" stroke-miterlimit="10"/></g><g transform="translate(-206,-230) scale(1,1)"><path fill="none" stroke="#000000" d="M 844.45263671875 451.64 L 857.2162730823864 469" stroke-miterlimit="10"/></g><g transform="translate(-206,-230) scale(1,1)"><g><path fill="none" stroke="none"/><text fill="#000000" stroke="none" font-family="Arial" font-size="13px" font-style="normal" font-weight="bold" text-decoration="none" x="787.358642578125" y="489.5">PersonalEncargado</text></g></g><g transform="translate(-206,-230) scale(1,1)"><path fill="none" stroke="#000000" d="M 432 331 L 560 512 L 775 469" stroke-miterlimit="10"/></g></g></svg>