<svg version="1.1" xmlns="http://www.w3.org/2000/svg" xmlns:xlink="http://www.w3.org/1999/xlink" width="1067.12451171875" height="555"><defs/><g><g transform="translate(-238,-142) scale(1,1)"><rect fill="#C0C0C0" stroke="none" x="255" y="159" width="304" height="15" opacity="0.2"/></g><g transform="translate(-238,-142) scale(1,1)"><rect fill="#C0C0C0" stroke="none" x="255" y="173" width="760" height="521" opacity="0.2"/></g><g transform="translate(-238,-142) scale(1,1)"><rect fill="#ffffff" stroke="none" x="248" y="167" width="760" height="520"/></g><g transform="translate(-238,-142) scale(1,1)"><path fill="none" stroke="#000000" d="M 248 167 L 1008 167 L 1008 687 L 248 687 L 248 167 Z Z" stroke-miterlimit="10"/></g><g transform="translate(-238,-142) scale(1,1)"><rect fill="#ffffff" stroke="none" x="248" y="152" width="304" height="15"/></g><g transform="translate(-238,-142) scale(1,1)"><path fill="none" stroke="#000000" d="M 248 152 L 552 152 L 552 167 L 248 167 L 248 152 Z Z" stroke-miterlimit="10"/></g><g transform="translate(-238,-142) scale(1,1)"><rect fill="#ffffff" stroke="none" x="248" y="166" width="760" height="521"/></g><g transform="translate(-238,-142) scale(1,1)"><path fill="none" stroke="#000000" d="M 248 166 L 1008 166 L 1008 687 L 248 687 L 248 166 Z Z" stroke-miterlimit="10"/></g><g transform="translate(-238,-142) scale(1,1)"><g><path fill="none" stroke="none"/><text fill="#000000" stroke="none" font-family="Arial" font-size="13px" font-style="normal" font-weight="bold" text-decoration="none" x="608.490478515625" y="186.5">Kiosko</text></g></g><g transform="translate(-238,-142) scale(1,1)"><path fill="#C0C0C0" stroke="none" d="M 615 281.5 C 615 266.312168 672.7552608 254 744 254 C 815.2447392 254 873 266.312168 873 281.5 C 873 296.687832 815.2447392 309 744 309 C 672.7552608 309 615 296.687832 615 281.5 Z" opacity="0.2"/></g><g transform="translate(-238,-142) scale(1,1)"><path fill="#ffffff" stroke="none" d="M 608 274.5 C 608 259.312168 665.7552608 247 737 247 C 808.2447392 247 866 259.312168 866 274.5 C 866 289.687832 808.2447392 302 737 302 C 665.7552608 302 608 289.687832 608 274.5 Z"/></g><g transform="translate(-238,-142) scale(1,1)"><path fill="none" stroke="#000000" d="M 608 274.5 C 608 259.312168 665.7552608 247 737 247 C 808.2447392 247 866 259.312168 866 274.5 C 866 289.687832 808.2447392 302 737 302 C 665.7552608 302 608 289.687832 608 274.5 Z" stroke-miterlimit="10"/></g><g transform="translate(-238,-142) scale(1,1)"><g><path fill="none" stroke="none"/><text fill="#000000" stroke="none" font-family="Arial" font-size="13px" font-style="normal" font-weight="bold" text-decoration="none" x="656.432373046875" y="274">InformaciónComoEmpleado</text></g></g><g transform="translate(-238,-142) scale(1,1)"><g><path fill="none" stroke="none"/><text fill="#000000" stroke="none" font-family="Arial" font-size="13px" font-style="normal" font-weight="normal" text-decoration="none" x="698.35546875" y="289">(from Kiosko)</text></g></g><g transform="translate(-238,-142) scale(1,1)"><path fill="#C0C0C0" stroke="none" d="M 639 393.5 C 639 378.312168 684.2192352 366 740 366 C 795.7807648 366 841 378.312168 841 393.5 C 841 408.687832 795.7807648 421 740 421 C 684.2192352 421 639 408.687832 639 393.5 Z" opacity="0.2"/></g><g transform="translate(-238,-142) scale(1,1)"><path fill="#ffffff" stroke="none" d="M 632 386.5 C 632 371.312168 677.2192352 359 733 359 C 788.7807648 359 834 371.312168 834 386.5 C 834 401.687832 788.7807648 414 733 414 C 677.2192352 414 632 401.687832 632 386.5 Z"/></g><g transform="translate(-238,-142) scale(1,1)"><path fill="none" stroke="#000000" d="M 632 386.5 C 632 371.312168 677.2192352 359 733 359 C 788.7807648 359 834 371.312168 834 386.5 C 834 401.687832 788.7807648 414 733 414 C 677.2192352 414 632 401.687832 632 386.5 Z" stroke-miterlimit="10"/></g><g transform="translate(-238,-142) scale(1,1)"><g><path fill="none" stroke="none"/><text fill="#000000" stroke="none" font-family="Arial" font-size="13px" font-style="normal" font-weight="bold" text-decoration="none" x="670.12646484375" y="386">CotizacionesPagadas</text></g></g><g transform="translate(-238,-142) scale(1,1)"><g><path fill="none" stroke="none"/><text fill="#000000" stroke="none" font-family="Arial" font-size="13px" font-style="normal" font-weight="normal" text-decoration="none" x="694.35546875" y="401">(from Kiosko)</text></g></g><g transform="translate(-238,-142) scale(1,1)"><path fill="#C0C0C0" stroke="none" d="M 639 481.5 C 639 466.312168 672.3547824 454 713.5 454 C 754.6452176 454 788 466.312168 788 481.5 C 788 496.687832 754.6452176 509 713.5 509 C 672.3547824 509 639 496.687832 639 481.5 Z" opacity="0.2"/></g><g transform="translate(-238,-142) scale(1,1)"><path fill="#ffffff" stroke="none" d="M 632 474.5 C 632 459.312168 665.3547824 447 706.5 447 C 747.6452176 447 781 459.312168 781 474.5 C 781 489.687832 747.6452176 502 706.5 502 C 665.3547824 502 632 489.687832 632 474.5 Z"/></g><g transform="translate(-238,-142) scale(1,1)"><path fill="none" stroke="#000000" d="M 632 474.5 C 632 459.312168 665.3547824 447 706.5 447 C 747.6452176 447 781 459.312168 781 474.5 C 781 489.687832 747.6452176 502 706.5 502 C 665.3547824 502 632 489.687832 632 474.5 Z" stroke-miterlimit="10"/></g><g transform="translate(-238,-142) scale(1,1)"><g><path fill="none" stroke="none"/><text fill="#000000" stroke="none" font-family="Arial" font-size="13px" font-style="normal" font-weight="bold" text-decoration="none" x="661.218994140625" y="474">DiasTrabajados</text></g></g><g transform="translate(-238,-142) scale(1,1)"><g><path fill="none" stroke="none"/><text fill="#000000" stroke="none" font-family="Arial" font-size="13px" font-style="normal" font-weight="normal" text-decoration="none" x="667.85546875" y="489">(from Kiosko)</text></g></g><g transform="translate(-238,-142) scale(1,1)"><path fill="#C0C0C0" stroke="none" d="M 623 553.5 C 623 538.312168 685.4562704 526 762.5 526 C 839.5437296 526 902 538.312168 902 553.5 C 902 568.687832 839.5437296 581 762.5 581 C 685.4562704 581 623 568.687832 623 553.5 Z" opacity="0.2"/></g><g transform="translate(-238,-142) scale(1,1)"><path fill="#ffffff" stroke="none" d="M 616 546.5 C 616 531.312168 678.4562704 519 755.5 519 C 832.5437296 519 895 531.312168 895 546.5 C 895 561.687832 832.5437296 574 755.5 574 C 678.4562704 574 616 561.687832 616 546.5 Z"/></g><g transform="translate(-238,-142) scale(1,1)"><path fill="none" stroke="#000000" d="M 616 546.5 C 616 531.312168 678.4562704 519 755.5 519 C 832.5437296 519 895 531.312168 895 546.5 C 895 561.687832 832.5437296 574 755.5 574 C 678.4562704 574 616 561.687832 616 546.5 Z" stroke-miterlimit="10"/></g><g transform="translate(-238,-142) scale(1,1)"><g><path fill="none" stroke="none"/><text fill="#000000" stroke="none" font-family="Arial" font-size="13px" font-style="normal" font-weight="bold" text-decoration="none" x="667.683349609375" y="546">LiquidaciónSueldoMesPagado</text></g></g><g transform="translate(-238,-142) scale(1,1)"><g><path fill="none" stroke="none"/><text fill="#000000" stroke="none" font-family="Arial" font-size="13px" font-style="normal" font-weight="normal" text-decoration="none" x="716.85546875" y="561">(from Kiosko)</text></g></g><g transform="translate(-238,-142) scale(1,1)"><path fill="#ffffff" stroke="none" d="M 1250.8829831321023 397.68 C 1250.8829831321023 392.886167936 1254.7688254570478 389 1259.562255859375 389 C 1264.3556862617022 389 1268.2415285866477 392.886167936 1268.2415285866477 397.68 C 1268.2415285866477 402.473832064 1264.3556862617022 406.36 1259.562255859375 406.36 C 1254.7688254570478 406.36 1250.8829831321023 402.473832064 1250.8829831321023 397.68 Z"/></g><g transform="translate(-238,-142) scale(1,1)"><path fill="none" stroke="#000000" d="M 1250.8829831321023 397.68 C 1250.8829831321023 392.886167936 1254.7688254570478 389 1259.562255859375 389 C 1264.3556862617022 389 1268.2415285866477 392.886167936 1268.2415285866477 397.68 C 1268.2415285866477 402.473832064 1264.3556862617022 406.36 1259.562255859375 406.36 C 1254.7688254570478 406.36 1250.8829831321023 402.473832064 1250.8829831321023 397.68 Z" stroke-miterlimit="10"/></g><g transform="translate(-238,-142) scale(1,1)"><path fill="none" stroke="#000000" d="M 1259.562255859375 406.36 L 1259.562255859375 423.64" stroke-miterlimit="10"/></g><g transform="translate(-238,-142) scale(1,1)"><path fill="none" stroke="#000000" d="M 1250.3724376775567 412.84 L 1268.7520740411933 412.84" stroke-miterlimit="10"/></g><g transform="translate(-238,-142) scale(1,1)"><path fill="none" stroke="#000000" d="M 1259.562255859375 423.64 L 1246.7986194957386 441" stroke-miterlimit="10"/></g><g transform="translate(-238,-142) scale(1,1)"><path fill="none" stroke="#000000" d="M 1259.562255859375 423.64 L 1272.3258922230114 441" stroke-miterlimit="10"/></g><g transform="translate(-238,-142) scale(1,1)"><g><path fill="none" stroke="none"/><text fill="#000000" stroke="none" font-family="Arial" font-size="13px" font-style="normal" font-weight="bold" text-decoration="none" x="1230.293212890625" y="461.5">Empleado</text></g></g><g transform="translate(-238,-142) scale(1,1)"><path fill="none" stroke="#000000" d="M 1223 416 L 836 303" stroke-miterlimit="10"/></g><g transform="translate(-238,-142) scale(1,1)"><path fill="none" stroke="#000000" d="M 1223 430 L 782 468" stroke-miterlimit="10"/></g><g transform="translate(-238,-142) scale(1,1)"><path fill="none" stroke="#000000" d="M 1223 424 L 835 394" stroke-miterlimit="10"/></g><g transform="translate(-238,-142) scale(1,1)"><path fill="none" stroke="#000000" d="M 1223 436 L 874 518" stroke-miterlimit="10"/></g></g></svg>