<svg version="1.1" xmlns="http://www.w3.org/2000/svg" xmlns:xlink="http://www.w3.org/1999/xlink" width="1022" height="459"><defs/><g><g transform="translate(-236,-134) scale(1,1)"><rect fill="#C0C0C0" stroke="none" x="511" y="151" width="297.6" height="15" opacity="0.2"/></g><g transform="translate(-236,-134) scale(1,1)"><rect fill="#C0C0C0" stroke="none" x="511" y="165" width="744" height="425" opacity="0.2"/></g><g transform="translate(-236,-134) scale(1,1)"><rect fill="#ffffff" stroke="none" x="504" y="159" width="744" height="424"/></g><g transform="translate(-236,-134) scale(1,1)"><path fill="none" stroke="#000000" d="M 504 159 L 1248 159 L 1248 583 L 504 583 L 504 159 Z Z" stroke-miterlimit="10"/></g><g transform="translate(-236,-134) scale(1,1)"><rect fill="#ffffff" stroke="none" x="504" y="144" width="297.6" height="15"/></g><g transform="translate(-236,-134) scale(1,1)"><path fill="none" stroke="#000000" d="M 504 144 L 801.6 144 L 801.6 159 L 504 159 L 504 144 Z Z" stroke-miterlimit="10"/></g><g transform="translate(-236,-134) scale(1,1)"><rect fill="#ffffff" stroke="none" x="504" y="158" width="744" height="425"/></g><g transform="translate(-236,-134) scale(1,1)"><path fill="none" stroke="#000000" d="M 504 158 L 1248 158 L 1248 583 L 504 583 L 504 158 Z Z" stroke-miterlimit="10"/></g><g transform="translate(-236,-134) scale(1,1)"><g><path fill="none" stroke="none"/><text fill="#000000" stroke="none" font-family="Arial" font-size="13px" font-style="normal" font-weight="bold" text-decoration="none" x="780.25830078125" y="178.5">Control de Horario Del Empleado</text></g></g><g transform="translate(-236,-134) scale(1,1)"><path fill="#C0C0C0" stroke="none" d="M 551 352 C 551 338.19288 626.6638688 327 720 327 C 813.3361312 327 889 338.19288 889 352 C 889 365.80712 813.3361312 377 720 377 C 626.6638688 377 551 365.80712 551 352 Z" opacity="0.2"/></g><g transform="translate(-236,-134) scale(1,1)"><path fill="#ffffff" stroke="none" d="M 544 345 C 544 331.19288 619.6638688 320 713 320 C 806.3361312 320 882 331.19288 882 345 C 882 358.80712 806.3361312 370 713 370 C 619.6638688 370 544 358.80712 544 345 Z"/></g><g transform="translate(-236,-134) scale(1,1)"><path fill="none" stroke="#000000" d="M 544 345 C 544 331.19288 619.6638688 320 713 320 C 806.3361312 320 882 331.19288 882 345 C 882 358.80712 806.3361312 370 713 370 C 619.6638688 370 544 358.80712 544 345 Z" stroke-miterlimit="10"/></g><g transform="translate(-236,-134) scale(1,1)"><path fill="none" stroke="#000000" d="M 544 375 L 882 375" stroke-miterlimit="10"/></g><g transform="translate(-236,-134) scale(1,1)"><g><path fill="none" stroke="none"/><text fill="#000000" stroke="none" font-family="Arial" font-size="13px" font-style="normal" font-weight="bold" text-decoration="none" x="676.510498046875" y="347">HuellaDigital</text></g></g><g transform="translate(-236,-134) scale(1,1)"><g><path fill="none" stroke="none"/><text fill="#000000" stroke="none" font-family="Arial" font-size="13px" font-style="normal" font-weight="normal" text-decoration="none" x="598.123291015625" y="362">(from Control de Horario Del Empleado)</text></g></g><g transform="translate(-236,-134) scale(1,1)"><g><path fill="none" stroke="none"/><text fill="#000000" stroke="none" font-family="Arial" font-size="13px" font-style="normal" font-weight="normal" text-decoration="none" x="549" y="392.5">Registrar Entrada al iniciar la jornada laboral</text></g></g><g transform="translate(-236,-134) scale(1,1)"><g><path fill="none" stroke="none"/><text fill="#000000" stroke="none" font-family="Arial" font-size="13px" font-style="normal" font-weight="normal" text-decoration="none" x="549" y="407.5">Registrar Salida al finalizar la jornada laboral</text></g></g><g transform="translate(-236,-134) scale(1,1)"><path fill="none" stroke="#000000" d="M 970 280 L 854 319" stroke-miterlimit="10" stroke-dasharray="3"/></g><g transform="translate(-236,-134) scale(1,1)"><path fill="none" stroke="#000000" d="M 862.2913425192527 311.7713321262883 L 854 319 L 864.9743045929508 319.75142444805704" stroke-miterlimit="10"/></g><g transform="translate(-236,-134) scale(1,1)"><g><path fill="none" stroke="none"/><text fill="#000000" stroke="none" font-family="Arial" font-size="13px" font-style="normal" font-weight="normal" text-decoration="none" x="894.5" y="333.5">«extend»</text></g></g><g transform="translate(-236,-134) scale(1,1)"><path fill="#C0C0C0" stroke="none" d="M 895 258.5 C 895 243.31216799999999 970.6638688 231 1064 231 C 1157.3361312 231 1233 243.31216799999999 1233 258.5 C 1233 273.687832 1157.3361312 286 1064 286 C 970.6638688 286 895 273.687832 895 258.5 Z" opacity="0.2"/></g><g transform="translate(-236,-134) scale(1,1)"><path fill="#ffffff" stroke="none" d="M 888 251.5 C 888 236.31216799999999 963.6638688 224 1057 224 C 1150.3361312 224 1226 236.31216799999999 1226 251.5 C 1226 266.687832 1150.3361312 279 1057 279 C 963.6638688 279 888 266.687832 888 251.5 Z"/></g><g transform="translate(-236,-134) scale(1,1)"><path fill="none" stroke="#000000" d="M 888 251.5 C 888 236.31216799999999 963.6638688 224 1057 224 C 1150.3361312 224 1226 236.31216799999999 1226 251.5 C 1226 266.687832 1150.3361312 279 1057 279 C 963.6638688 279 888 266.687832 888 251.5 Z" stroke-miterlimit="10"/></g><g transform="translate(-236,-134) scale(1,1)"><g><path fill="none" stroke="none"/><text fill="#000000" stroke="none" font-family="Arial" font-size="13px" font-style="normal" font-weight="bold" text-decoration="none" x="990.765380859375" y="251">RegistrarSalidaTrabajo</text></g></g><g transform="translate(-236,-134) scale(1,1)"><g><path fill="none" stroke="none"/><text fill="#000000" stroke="none" font-family="Arial" font-size="13px" font-style="normal" font-weight="normal" text-decoration="none" x="942.123291015625" y="266">(from Control de Horario Del Empleado)</text></g></g><g transform="translate(-236,-134) scale(1,1)"><path fill="none" stroke="#000000" d="M 956 439 L 873 414" stroke-miterlimit="10" stroke-dasharray="3"/></g><g transform="translate(-236,-134) scale(1,1)"><path fill="none" stroke="#000000" d="M 883.9448949196661 412.9003295050489 L 873 414 L 881.5167938811209 420.96162495301945" stroke-miterlimit="10"/></g><g transform="translate(-236,-134) scale(1,1)"><g><path fill="none" stroke="none"/><text fill="#000000" stroke="none" font-family="Arial" font-size="13px" font-style="normal" font-weight="normal" text-decoration="none" x="878.5" y="460.5">«extend»</text></g></g><g transform="translate(-236,-134) scale(1,1)"><path fill="#C0C0C0" stroke="none" d="M 887 474.5 C 887 459.312168 962.6638688 447 1056 447 C 1149.3361312 447 1225 459.312168 1225 474.5 C 1225 489.687832 1149.3361312 502 1056 502 C 962.6638688 502 887 489.687832 887 474.5 Z" opacity="0.2"/></g><g transform="translate(-236,-134) scale(1,1)"><path fill="#ffffff" stroke="none" d="M 880 467.5 C 880 452.312168 955.6638688 440 1049 440 C 1142.3361312 440 1218 452.312168 1218 467.5 C 1218 482.687832 1142.3361312 495 1049 495 C 955.6638688 495 880 482.687832 880 467.5 Z"/></g><g transform="translate(-236,-134) scale(1,1)"><path fill="none" stroke="#000000" d="M 880 467.5 C 880 452.312168 955.6638688 440 1049 440 C 1142.3361312 440 1218 452.312168 1218 467.5 C 1218 482.687832 1142.3361312 495 1049 495 C 955.6638688 495 880 482.687832 880 467.5 Z" stroke-miterlimit="10"/></g><g transform="translate(-236,-134) scale(1,1)"><g><path fill="none" stroke="none"/><text fill="#000000" stroke="none" font-family="Arial" font-size="13px" font-style="normal" font-weight="bold" text-decoration="none" x="982.765380859375" y="467">RegistrarSalidaTrabajo</text></g></g><g transform="translate(-236,-134) scale(1,1)"><g><path fill="none" stroke="none"/><text fill="#000000" stroke="none" font-family="Arial" font-size="13px" font-style="normal" font-weight="normal" text-decoration="none" x="934.123291015625" y="482">(from Control de Horario Del Empleado)</text></g></g><g transform="translate(-236,-134) scale(1,1)"><path fill="#ffffff" stroke="none" d="M 272.88298313210225 368.68 C 272.88298313210225 363.886167936 276.76882545704774 360 281.562255859375 360 C 286.35568626170226 360 290.24152858664775 363.886167936 290.24152858664775 368.68 C 290.24152858664775 373.473832064 286.35568626170226 377.36 281.562255859375 377.36 C 276.76882545704774 377.36 272.88298313210225 373.473832064 272.88298313210225 368.68 Z"/></g><g transform="translate(-236,-134) scale(1,1)"><path fill="none" stroke="#000000" d="M 272.88298313210225 368.68 C 272.88298313210225 363.886167936 276.76882545704774 360 281.562255859375 360 C 286.35568626170226 360 290.24152858664775 363.886167936 290.24152858664775 368.68 C 290.24152858664775 373.473832064 286.35568626170226 377.36 281.562255859375 377.36 C 276.76882545704774 377.36 272.88298313210225 373.473832064 272.88298313210225 368.68 Z" stroke-miterlimit="10"/></g><g transform="translate(-236,-134) scale(1,1)"><path fill="none" stroke="#000000" d="M 281.562255859375 377.36 L 281.562255859375 394.64" stroke-miterlimit="10"/></g><g transform="translate(-236,-134) scale(1,1)"><path fill="none" stroke="#000000" d="M 272.37243767755683 383.84 L 290.75207404119317 383.84" stroke-miterlimit="10"/></g><g transform="translate(-236,-134) scale(1,1)"><path fill="none" stroke="#000000" d="M 281.562255859375 394.64 L 268.79861949573865 412" stroke-miterlimit="10"/></g><g transform="translate(-236,-134) scale(1,1)"><path fill="none" stroke="#000000" d="M 281.562255859375 394.64 L 294.32589222301135 412" stroke-miterlimit="10"/></g><g transform="translate(-236,-134) scale(1,1)"><g><path fill="none" stroke="none"/><text fill="#000000" stroke="none" font-family="Arial" font-size="13px" font-style="normal" font-weight="bold" text-decoration="none" x="252.293212890625" y="432.5">Empleado</text></g></g><g transform="translate(-236,-134) scale(1,1)"><path fill="none" stroke="#000000" d="M 318 395 L 543 379" stroke-miterlimit="10"/></g></g></svg>